<?xml version="1.0" encoding="UTF-8" standalone="no"?>
<!-- Created with Inkscape (http://www.inkscape.org/) -->

<svg
   xmlns:dc="http://purl.org/dc/elements/1.1/"
   xmlns:cc="http://creativecommons.org/ns#"
   xmlns:rdf="http://www.w3.org/1999/02/22-rdf-syntax-ns#"
   xmlns:svg="http://www.w3.org/2000/svg"
   xmlns="http://www.w3.org/2000/svg"
   xmlns:sodipodi="http://sodipodi.sourceforge.net/DTD/sodipodi-0.dtd"
   xmlns:inkscape="http://www.inkscape.org/namespaces/inkscape"
   width="210mm"
   height="297mm"
   viewBox="0 0 210 297"
   version="1.1"
   id="svg8"
   inkscape:version="0.92.3 (2405546, 2018-03-11)"
   sodipodi:docname="naruto.svg">
  <defs
     id="defs2" />
  <sodipodi:namedview
     id="base"
     pagecolor="#ffffff"
     bordercolor="#666666"
     borderopacity="1.0"
     inkscape:pageopacity="0.0"
     inkscape:pageshadow="2"
     inkscape:zoom="0.7"
     inkscape:cx="133.67493"
     inkscape:cy="734.02974"
     inkscape:document-units="mm"
     inkscape:current-layer="layer1"
     showgrid="false"
     inkscape:window-width="1366"
     inkscape:window-height="700"
     inkscape:window-x="1366"
     inkscape:window-y="32"
     inkscape:window-maximized="1" />
  <metadata
     id="metadata5">
    <rdf:RDF>
      <cc:Work
         rdf:about="">
        <dc:format>image/svg+xml</dc:format>
        <dc:type
           rdf:resource="http://purl.org/dc/dcmitype/StillImage" />
        <dc:title />
      </cc:Work>
    </rdf:RDF>
  </metadata>
  <g
     inkscape:label="Camada 1"
     inkscape:groupmode="layer"
     id="layer1">
    <path
       style="fill:#e8b7a1;fill-opacity:1;stroke:#000000;stroke-width:0.26458332px;stroke-linecap:butt;stroke-linejoin:miter;stroke-opacity:1"
       d="m 78.430059,103.3817 c -4.9347,-0.32101 -4.029645,8.51801 -2.8596,12.50978 1.159464,2.89341 2.63871,8.38245 6.481285,7.24967 l -1.330204,-4.19158"
       id="path3824"
       inkscape:connector-curvature="0"
       sodipodi:nodetypes="cccc" />
    <path
       style="fill:#ce938b;stroke:#000000;stroke-width:0.26458332px;stroke-linecap:butt;stroke-linejoin:miter;stroke-opacity:1;fill-opacity:1"
       d="m 79.233259,112.32319 -1.547341,0.63784 c -2.606143,1.75108 0.460997,3.65867 2.137928,5.5279 l 1.039434,-1.59459 z"
       id="path4026"
       inkscape:connector-curvature="0"
       sodipodi:nodetypes="ccccc" />
    <path
       style="fill:#bf978a;fill-opacity:1;stroke:#000000;stroke-width:0.26458332px;stroke-linecap:butt;stroke-linejoin:miter;stroke-opacity:1"
       d="m 132.38616,104.27939 c 2.42237,-0.0753 5.17335,-1.3355 3.1529,10.64323 -1.9386,5.77511 -3.76359,9.76856 -6.50635,8.46076 l 0.84936,-3.70146"
       id="path3826"
       inkscape:connector-curvature="0"
       sodipodi:nodetypes="cccc" />
    <path
       style="fill:#ccd255;stroke:#000000;stroke-width:0.20447184px;stroke-linecap:butt;stroke-linejoin:miter;stroke-opacity:1;fill-opacity:1"
       d="m 82.649582,81.24223 h 47.593788 l 1.70316,3.268863 -49.438877,-0.1409 z"
       id="path3802"
       inkscape:connector-curvature="0" />
    <path
       style="fill:#4f4446;stroke:#000000;stroke-width:0.26458332px;stroke-linecap:butt;stroke-linejoin:miter;stroke-opacity:1;fill-opacity:1"
       d="m 75.595238,91.664434 c 1.094471,3.907744 0.879906,8.142746 1.039434,12.284226 0.82512,0.22748 1.267426,0.82037 1.6064,1.5119 21.905718,0.0207 40.764258,0.23194 54.617558,0.75596 0.0155,-0.7508 0.65399,-1.29391 1.41741,-1.79539 l 0.28348,-18.520834 C 114.60897,80.865454 94.821861,82.041305 75.122767,86.561754 Z"
       id="path3782"
       inkscape:connector-curvature="0"
       sodipodi:nodetypes="cccccccc" />
    <path
       style="fill:#b2b5be;stroke:#000000;stroke-width:0.26458332px;stroke-linecap:butt;stroke-linejoin:miter;stroke-opacity:1;fill-opacity:1"
       d="m 84.523986,87.594322 c 0.307994,5.418502 0.106882,13.328248 1.079848,15.292378 0.972966,1.96414 37.832426,1.57686 39.144216,0.4097 1.31179,-1.16715 1.52975,-9.183651 1.16931,-14.09846 -0.20633,-2.813453 -28.961549,-3.978788 -41.393374,-1.603618 z"
       id="path3784"
       inkscape:connector-curvature="0"
       sodipodi:nodetypes="czzsc" />
    <path
       style="fill:#ddde51;stroke:#000000;stroke-width:0.26458332px;stroke-linecap:butt;stroke-linejoin:miter;stroke-opacity:1;fill-opacity:1"
       d="m 73.327381,81.459077 -6.331101,9.827379 5.291667,-0.944938 -1.13393,7.465028 8.693451,-12.473215 -0.661458,13.890625 9.354912,-17.953868 z"
       id="path3778"
       inkscape:connector-curvature="0" />
    <path
       style="fill:#aea73c;fill-opacity:1;stroke:#000000;stroke-width:0.26458332px;stroke-linecap:butt;stroke-linejoin:miter;stroke-opacity:1"
       d="m 126.33854,81.270088 1.70089,18.804312 c 1.82627,-4.211997 2.60391,-8.873408 3.87426,-13.323656 l 6.3311,15.308036 -0.0945,-8.882442 6.80357,-0.850445 -6.14212,-7.9375 6.23661,-3.023812 z"
       id="path3780"
       inkscape:connector-curvature="0"
       sodipodi:nodetypes="ccccccccc" />
    <path
       style="fill:#91763a;stroke:#000000;stroke-width:0.26458332px;stroke-linecap:butt;stroke-linejoin:miter;stroke-opacity:1;fill-opacity:1"
       d="m 137.57699,81.447126 0.5733,11.729212 6.80357,-0.850445 -6.14212,-7.9375 6.23661,-3.023812 z"
       id="path3862"
       inkscape:connector-curvature="0" />
    <path
       style="fill:#241e21;stroke:#000000;stroke-width:0.26458332px;stroke-linecap:butt;stroke-linejoin:miter;stroke-opacity:1;fill-opacity:1"
       d="m 87.463952,84.286864 c -1.969226,5.040559 -4.379438,9.750378 -5.712886,15.267771 L 81.249934,95.244914 86.96282,84.186637 Z"
       id="path3856"
       inkscape:connector-curvature="0"
       sodipodi:nodetypes="ccccc" />
    <path
       style="fill:none;stroke:#000000;stroke-width:0.26458332px;stroke-linecap:butt;stroke-linejoin:miter;stroke-opacity:1"
       d="m 85.860336,89.598845 c -0.445789,2.063383 1.766729,1.386052 1.603616,0.734992"
       id="path3786"
       inkscape:connector-curvature="0"
       sodipodi:nodetypes="cc" />
    <path
       style="fill:none;stroke:#000000;stroke-width:0.26458332px;stroke-linecap:butt;stroke-linejoin:miter;stroke-opacity:1"
       d="m 85.927152,95.913089 c -0.618284,1.456863 0.988576,1.749583 1.336348,0.835217"
       id="path3788"
       inkscape:connector-curvature="0"
       sodipodi:nodetypes="cc" />
    <path
       style="fill:none;stroke:#000000;stroke-width:0.25737536px;stroke-linecap:butt;stroke-linejoin:miter;stroke-opacity:1"
       d="m 86.461692,101.16597 c -0.241739,0.81582 0.628157,1.86702 1.469982,0.69549"
       id="path3790"
       inkscape:connector-curvature="0"
       sodipodi:nodetypes="cc" />
    <path
       style="fill:none;stroke:#000000;stroke-width:0.26458332px;stroke-linecap:butt;stroke-linejoin:miter;stroke-opacity:1"
       d="m 124.07988,89.949636 c -0.90616,1.335174 0.71709,1.725214 1.13589,1.052374"
       id="path3792"
       inkscape:connector-curvature="0"
       sodipodi:nodetypes="cc" />
    <path
       style="fill:none;stroke:#000000;stroke-width:0.26458332px;stroke-linecap:butt;stroke-linejoin:miter;stroke-opacity:1"
       d="m 124.36386,95.762749 c -1.13715,0.808255 0.0132,2.071539 0.70158,1.369757"
       id="path3794"
       inkscape:connector-curvature="0"
       sodipodi:nodetypes="cc" />
    <path
       style="fill:none;stroke:#000000;stroke-width:0.26458332px;stroke-linecap:butt;stroke-linejoin:miter;stroke-opacity:1"
       d="m 112.05275,90.166792 -2.40543,1.837478 c 0,0 -1.22352,-0.772332 -1.9377,-0.968851 -0.71418,-0.196519 -1.56688,-0.292853 -2.27179,-0.167044 -0.70491,0.125809 -1.29742,0.470861 -1.83748,0.835218 -0.54006,0.364357 -1.0533,0.815676 -1.36976,1.302938 -0.31646,0.487262 -0.4424,0.938628 -0.53454,1.503391 -0.0921,0.564763 -0.10547,1.25103 0.0334,1.837478 0.13887,0.586448 0.44989,1.093253 0.7684,1.603619 0.31851,0.510366 0.66618,1.10248 1.1359,1.436574 0.46972,0.334094 0.9154,0.469543 1.5368,0.534537 0.6214,0.06499 1.55798,0.01116 2.10475,-0.267269 0.54677,-0.278432 0.79129,-0.670833 1.06907,-1.135895 0.27778,-0.465062 0.50273,-1.009292 0.53454,-1.603619 0.0318,-0.594327 -0.11416,-1.349567 -0.4009,-1.837476 -0.28674,-0.487909 -0.69047,-0.802953 -1.1359,-1.002262 -0.44543,-0.199309 -0.93431,-0.241242 -1.40316,-0.167042 -0.46885,0.0742 -0.99884,0.24278 -1.30294,0.601355 -0.3041,0.358575 -0.39745,0.876749 -0.3675,1.336347 0.0299,0.459598 0.53454,1.269532 0.53454,1.269532"
       id="path3798"
       inkscape:connector-curvature="0"
       sodipodi:nodetypes="cczzzzzzzzzzzzzzzzzc" />
    <path
       style="fill:none;stroke:#000000;stroke-width:0.26458332px;stroke-linecap:butt;stroke-linejoin:miter;stroke-opacity:1"
       d="m 101.69605,94.50992 -2.071335,5.078124 5.545835,0.334084"
       id="path3800"
       inkscape:connector-curvature="0" />
    <path
       style="fill:#ddd85f;stroke:#000000;stroke-width:0.26458332px;stroke-linecap:butt;stroke-linejoin:miter;stroke-opacity:1;fill-opacity:1"
       d="m 78.241072,105.46056 1.204798,8.59896 0.354351,-1.27567 0.921319,6.16574 0.845778,-13.4315 z"
       id="path3804"
       inkscape:connector-curvature="0" />
    <path
       style="fill:#a1746f;stroke:none;stroke-width:0.26458332px;stroke-linecap:butt;stroke-linejoin:miter;stroke-opacity:1;fill-opacity:1"
       d="m 130.80339,119.63467 c 3.27513,-3.48654 5.19014,-6.14729 1.93712,-8.97693 l -3.42541,6.47284 z"
       id="path4010"
       inkscape:connector-curvature="0"
       sodipodi:nodetypes="cccc" />
    <path
       style="fill:#b3b440;stroke:#000000;stroke-width:0.26458332px;stroke-linecap:butt;stroke-linejoin:miter;stroke-opacity:1;fill-opacity:1"
       d="m 129.64583,106.02753 0.23624,13.65439 0.99219,-5.24442 0.33072,1.84263 1.65365,-10.06361 -3.2128,-0.0473"
       id="path3806"
       inkscape:connector-curvature="0" />
    <path
       style="fill:#4c483f;fill-opacity:1;stroke:#000000;stroke-width:0.26458332px;stroke-linecap:butt;stroke-linejoin:miter;stroke-opacity:1"
       d="m 77.014756,139.84552 c -1.89353,3.53124 -3.601398,7.32772 -6.080381,10.0226 l 5.512435,0.13364 z"
       id="path3876"
       inkscape:connector-curvature="0"
       sodipodi:nodetypes="cccc" />
    <path
       style="fill:#804a30;stroke:#000000;stroke-width:0.26458332px;stroke-linecap:butt;stroke-linejoin:miter;stroke-opacity:1;fill-opacity:1"
       d="m 129.09118,136.57146 c -4.43141,-2.07073 -4.9474,-1.2216 -7.48355,-1.87088 l -1.20271,11.35895 9.02035,-7.81763 z"
       id="path3886"
       inkscape:connector-curvature="0"
       sodipodi:nodetypes="ccccc" />
    <path
       style="fill:#a87c40;fill-opacity:1;stroke:#000000;stroke-width:0.26458332px;stroke-linecap:butt;stroke-linejoin:miter;stroke-opacity:1"
       d="m 122.40944,135.97011 1.26953,4.74403 2.6727,-7.88445 1.06908,3.67496 3.19137,-12.98515 c -1.57935,0.0598 -2.56994,-0.72908 -2.38957,0.75757 z"
       id="path3848"
       inkscape:connector-curvature="0"
       sodipodi:nodetypes="ccccccc" />
    <path
       style="fill:#c78e83;stroke:#000000;stroke-width:0.26458332px;stroke-linecap:butt;stroke-linejoin:miter;stroke-opacity:1;fill-opacity:1"
       d="m 88.933932,136.10374 c 0.581892,4.92298 0.341842,9.62179 0.267271,14.36574 l 34.010047,0.20045 -0.80181,-14.69982 -33.475508,0.13363"
       id="path3838"
       inkscape:connector-curvature="0"
       sodipodi:nodetypes="ccccc" />
    <path
       style="fill:#212123;fill-opacity:1;stroke:#000000;stroke-width:0.26458332px;stroke-linecap:butt;stroke-linejoin:miter;stroke-opacity:1"
       d="m 81.190842,129.72268 c -1.08385,3.37428 -2.599665,7.2998 -4.476764,10.67408 -0.544822,2.99885 -0.516785,5.12787 0.06682,7.21627 l 7.249687,-12.57837 -1.269532,-6.21401 z"
       id="path3874"
       inkscape:connector-curvature="0"
       sodipodi:nodetypes="cccccc" />
    <path
       style="fill:#bc6b45;fill-opacity:1;stroke:#000000;stroke-width:0.26458332px;stroke-linecap:butt;stroke-linejoin:miter;stroke-opacity:1"
       d="m 83.889222,135.03466 c -8.025771,2.85203 -5.681885,9.23856 -7.784225,14.06506 l 16.470485,-0.13363 c 0.228312,-2.00015 -0.377015,-4.33084 -3.405004,-5.36756 -2.710996,-0.92819 -0.114863,-6.12166 -0.935872,-8.78962 z"
       id="path3878"
       inkscape:connector-curvature="0"
       sodipodi:nodetypes="cccscc" />
    <path
       style="fill:#8f5030;fill-opacity:1;stroke:#000000;stroke-width:0.26458332px;stroke-linecap:butt;stroke-linejoin:miter;stroke-opacity:1"
       d="m 84.72444,136.3376 c 0,0 -2.07861,0.80743 -2.472243,2.27179 -0.393633,1.46436 6.978266,5.15744 7.099347,5.03636 l 0.175151,-8.13383 -2.931367,-0.043 -0.868627,-1.5368 z"
       id="path3880"
       inkscape:connector-curvature="0"
       sodipodi:nodetypes="czccccc" />
    <path
       style="fill:#e1b2a0;stroke:#000000;stroke-width:0.26458332px;stroke-linecap:butt;stroke-linejoin:miter;stroke-opacity:1;fill-opacity:1"
       d="m 81.567318,105.51809 -0.845778,13.4315 c 2.855028,12.36584 10.304732,21.50672 18.741884,26.81968 1.653196,1.04103 4.090816,1.26288 6.241676,1.35934 1.74703,-0.13413 3.29703,0.0948 4.6194,-0.62931 11.26043,-6.1657 16.96572,-14.57559 19.55757,-26.81738 l -0.23624,-13.5127 z"
       id="path3808"
       inkscape:connector-curvature="0"
       sodipodi:nodetypes="ccscsccc" />
    <path
       style="fill:none;stroke:#000000;stroke-width:0.26458332px;stroke-linecap:butt;stroke-linejoin:miter;stroke-opacity:1"
       d="m 116.65909,132.20877 0.12219,0.656 c -7.78023,0.3103 -14.99146,1.60191 -21.766954,3.10534"
       id="path3810"
       inkscape:connector-curvature="0"
       sodipodi:nodetypes="ccc" />
    <path
       style="fill:none;stroke:#000000;stroke-width:0.26458332px;stroke-linecap:butt;stroke-linejoin:miter;stroke-opacity:1"
       d="m 81.650839,120.80256 c 2.651547,-0.99079 5.501724,-0.93878 8.418991,-0.53454"
       id="path3812"
       inkscape:connector-curvature="0"
       sodipodi:nodetypes="cc" />
    <path
       style="fill:none;stroke:#000000;stroke-width:0.26458332px;stroke-linecap:butt;stroke-linejoin:miter;stroke-opacity:1"
       d="m 91.07209,126.3484 c -2.467755,0.24672 -4.89008,0.63386 -7.015823,1.93771"
       id="path3814"
       inkscape:connector-curvature="0"
       sodipodi:nodetypes="cc" />
    <path
       style="fill:none;stroke:#000000;stroke-width:0.26458332px;stroke-linecap:butt;stroke-linejoin:miter;stroke-opacity:1"
       d="m 87.463952,133.96559 c 1.171317,-1.58389 3.034235,-2.13039 4.810852,-2.80633"
       id="path3816"
       inkscape:connector-curvature="0"
       sodipodi:nodetypes="cc" />
    <path
       style="fill:none;stroke:#000000;stroke-width:0.26458332px;stroke-linecap:butt;stroke-linejoin:miter;stroke-opacity:1"
       d="m 119.26902,128.88746 c 1.92314,-0.0398 3.89771,0.76892 5.94675,2.80634"
       id="path3818"
       inkscape:connector-curvature="0"
       sodipodi:nodetypes="cc" />
    <path
       style="fill:none;stroke:#000000;stroke-width:0.26458332px;stroke-linecap:butt;stroke-linejoin:miter;stroke-opacity:1"
       d="m 128.22255,124.27707 c -2.56786,-1.10289 -5.04088,-1.0677 -7.48354,-0.66818"
       id="path3820"
       inkscape:connector-curvature="0"
       sodipodi:nodetypes="cc" />
    <path
       style="fill:none;stroke:#000000;stroke-width:0.26458332px;stroke-linecap:butt;stroke-linejoin:miter;stroke-opacity:1"
       d="m 122.67671,118.2635 c 1.93478,-0.98681 4.31843,-0.92624 6.81537,-0.60135"
       id="path3822"
       inkscape:connector-curvature="0"
       sodipodi:nodetypes="cc" />
    <path
       style="fill:#bc9e70;stroke:#000000;stroke-width:0.26458332px;stroke-linecap:butt;stroke-linejoin:miter;stroke-opacity:1;fill-opacity:1"
       d="m 91.038681,105.83547 10.423509,5.44561 1.26953,-0.66817 -0.7684,-0.0334 -8.31876,-4.87767 z"
       id="path3828"
       inkscape:connector-curvature="0" />
    <path
       style="fill:#be897e;stroke:none;stroke-width:0.26458332px;stroke-linecap:butt;stroke-linejoin:miter;stroke-opacity:1;fill-opacity:1"
       d="m 110.54936,111.04722 c 0,0 -2.53219,2.0766 -3.4876,3.76826 -0.95541,1.69166 -1.1914,15.42474 -0.63854,15.33259 1.57477,1.70722 4.56852,-1.95013 4.89077,-2.76489 0.87322,-2.46077 -2.53944,-8.49782 -1.79539,-10.2526 0.74405,-1.75478 3.30504,-5.23467 2.68127,-6.89807 z"
       id="path3864"
       inkscape:connector-curvature="0"
       sodipodi:nodetypes="czcczcc" />
    <path
       style="fill:#a28156;stroke:#000000;stroke-width:0.26458332px;stroke-linecap:butt;stroke-linejoin:miter;stroke-opacity:1;fill-opacity:1"
       d="m 109.27983,110.41246 1.26953,0.63476 9.52147,-5.0113 h -2.77292 l -7.3165,4.30972 z"
       id="path3830"
       inkscape:connector-curvature="0" />
    <path
       style="fill:none;stroke:#000000;stroke-width:0.26458332px;stroke-linecap:butt;stroke-linejoin:miter;stroke-opacity:1"
       d="m 101.72946,128.85406 c 0.64556,0.0805 1.24369,0.29657 1.67044,1.00226"
       id="path3832"
       inkscape:connector-curvature="0"
       sodipodi:nodetypes="cc" />
    <path
       style="fill:none;stroke:#000000;stroke-width:0.26458332px;stroke-linecap:butt;stroke-linejoin:miter;stroke-opacity:1"
       d="m 107.07485,129.62246 c 0.21182,-0.53526 0.82652,-0.70121 1.40317,-0.90204"
       id="path3834"
       inkscape:connector-curvature="0"
       sodipodi:nodetypes="cc" />
    <path
       style="fill:#bf9346;fill-opacity:1;stroke:#000000;stroke-width:0.26458332px;stroke-linecap:butt;stroke-linejoin:miter;stroke-opacity:1"
       d="m 80.606818,123.2748 0.375848,8.68627 1.469982,-3.14042 2.405425,10.15624 1.202714,-3.94223 2.271792,5.87993 0.601355,-4.81085 -6.88219,-12.96259 z"
       id="path3836"
       inkscape:connector-curvature="0"
       sodipodi:nodetypes="ccccccccc" />
    <path
       style="fill:#954e30;stroke:#000000;stroke-width:0.26458332px;stroke-linecap:butt;stroke-linejoin:miter;stroke-opacity:1;fill-opacity:1"
       d="m 90.88345,148.91786 c 0,0 0.361242,-2.17792 -0.81362,-2.65788 -1.174862,-0.47996 -2.845778,1.93474 -3.942225,3.47451"
       id="path3842"
       inkscape:connector-curvature="0"
       sodipodi:nodetypes="czc" />
    <path
       style="fill:none;stroke:#000000;stroke-width:0.26458332px;stroke-linecap:butt;stroke-linejoin:miter;stroke-opacity:1"
       d="m 123.71238,101.20837 c -0.8314,1.07746 0.43135,1.62119 0.93545,0.96885"
       id="path3850"
       inkscape:connector-curvature="0"
       sodipodi:nodetypes="cc" />
    <path
       style="fill:#c8974c;fill-opacity:1;stroke:#000000;stroke-width:0.26458332px;stroke-linecap:butt;stroke-linejoin:miter;stroke-opacity:1"
       d="m 66.99628,91.286456 6.719997,-6.381531 -1.42833,5.436593 z"
       id="path3852"
       inkscape:connector-curvature="0"
       sodipodi:nodetypes="cccc" />
    <path
       style="fill:#282028;stroke:#000000;stroke-width:0.26458332px;stroke-linecap:butt;stroke-linejoin:miter;stroke-opacity:1;fill-opacity:1"
       d="m 75.595238,91.664432 0.609984,2.511403 3.441097,-6.681737 0.201149,-2.160767 z"
       id="path3854"
       inkscape:connector-curvature="0" />
    <path
       style="fill:#eceeeb;fill-opacity:1;stroke:none;stroke-width:0.26458332px;stroke-linecap:butt;stroke-linejoin:miter;stroke-opacity:1"
       d="m 86.543126,87.485746 c 0,0 4.918837,-0.1815 5.748382,0.643116 0.829545,0.824616 1.70415,13.491968 3.841999,13.664158 2.137849,0.17219 2.935138,-13.417312 3.541321,-13.964835 0.904522,-0.816992 16.735662,-0.810162 16.735662,-0.810162 -9.61788,-0.676636 -19.766338,-1.216234 -29.867364,0.467723 z"
       id="path3858"
       inkscape:connector-curvature="0"
       sodipodi:nodetypes="czzscc" />
    <path
       style="fill:#1e1a1b;stroke:#000000;stroke-width:0.26458332px;stroke-linecap:butt;stroke-linejoin:miter;stroke-opacity:1;fill-opacity:1"
       d="m 131.91369,86.750744 -0.51972,1.700892 2.97656,9.780132 0.0945,-5.338913 z"
       id="path3860"
       inkscape:connector-curvature="0" />
    <path
       style="fill:none;stroke:#000000;stroke-width:0.26458332px;stroke-linecap:butt;stroke-linejoin:miter;stroke-opacity:1"
       d="m 73.716276,84.904923 1.052375,-2.756215"
       id="path3866"
       inkscape:connector-curvature="0" />
    <path
       style="fill:none;stroke:#000000;stroke-width:0.26458332px;stroke-linecap:butt;stroke-linejoin:miter;stroke-opacity:1"
       d="m 79.847468,85.333331 0.567251,-3.301556"
       id="path3868"
       inkscape:connector-curvature="0" />
    <path
       style="fill:#ffffff;stroke:none;stroke-width:0.26458332px;stroke-linecap:butt;stroke-linejoin:miter;stroke-opacity:1;fill-opacity:1"
       d="m 104.63602,123.69241 0.51783,1.85419 -1.05237,0.4176 z"
       id="path3872"
       inkscape:connector-curvature="0" />
    <path
       style="fill:none;stroke:#000000;stroke-width:0.26458332px;stroke-linecap:butt;stroke-linejoin:miter;stroke-opacity:1"
       d="m 89.06757,143.55388 c 2.00883,0.75629 3.543061,1.46043 3.507912,5.41221"
       id="path3882"
       inkscape:connector-curvature="0"
       sodipodi:nodetypes="cc" />
    <path
       style="fill:#a45b38;stroke:#000000;stroke-width:0.26458332px;stroke-linecap:butt;stroke-linejoin:miter;stroke-opacity:1;fill-opacity:1"
       d="m 113.99045,149.60085 c 5.42614,-3.01512 9.84067,-7.04185 14.03165,-11.29213 l 1.06908,-1.73726 c 2.15066,0.87644 2.22183,4.71496 2.47224,5.81312 0.25041,1.09816 4.40995,8.01808 4.40995,8.01808 z"
       id="path3884"
       inkscape:connector-curvature="0"
       sodipodi:nodetypes="ccczcc" />
    <path
       style="fill:none;stroke:#000000;stroke-width:0.26458332px;stroke-linecap:butt;stroke-linejoin:miter;stroke-opacity:1"
       d="m 98.084821,112.81929 -0.03544,-1.03944 c -0.06809,-1.99702 -7.583471,-9.16983 -12.414157,-2.04343 -0.138031,1.60948 0.398,3.0634 1.417412,4.40578"
       id="path3888"
       inkscape:connector-curvature="0"
       sodipodi:nodetypes="cscc" />
    <path
       style="fill:#eef4ed;fill-opacity:1;stroke:#000000;stroke-width:0.26458332px;stroke-linecap:butt;stroke-linejoin:miter;stroke-opacity:1"
       d="m 85.635223,109.73642 c 2.84042,8.6182 7.201507,5.17968 11.216571,4.48463 0.629314,-1.976 2.425349,-3.52649 -3.507912,-6.86615 -2.071058,-0.32104 -3.838011,-1.98611 -7.708659,2.38152 z"
       id="path3890"
       inkscape:connector-curvature="0"
       sodipodi:nodetypes="cccc" />
    <path
       style="fill:#b2b3b2;fill-opacity:1;stroke:none;stroke-width:0.26458332px;stroke-linecap:butt;stroke-linejoin:miter;stroke-opacity:1"
       d="m 87.33867,113.10186 c 0.146833,-4.54541 2.320504,-5.36265 4.668863,-5.9081 3.922198,1.4248 4.918135,3.46546 5.123169,5.9523 0.173281,-0.40384 0.306437,-0.81971 0.323114,-1.27053 0.097,-0.43331 -0.09114,-0.79952 -0.252592,-1.17201 -0.221855,-0.46366 -0.586219,-0.82043 -0.928523,-1.19376 l -1.317444,-1.0451 -1.291126,-0.73804 -2.366489,-0.7944 -0.93304,-0.0587 c -0.641644,0.006 -1.060593,0.21529 -1.522962,0.3852 -0.478874,0.22367 -0.945844,0.54257 -1.409071,0.89142 l -1.149385,1.0565 -0.494408,0.5534 c 0.152682,0.5103 0.323313,1.01612 0.564339,1.50434 0.217139,0.61249 0.593039,1.22499 0.985555,1.83748 z"
       id="path3894"
       inkscape:connector-curvature="0"
       sodipodi:nodetypes="cccccccccccccccc" />
    <path
       style="fill:#19426b;stroke:#000000;stroke-width:0.26458332px;stroke-linecap:butt;stroke-linejoin:miter;stroke-opacity:1;fill-opacity:1"
       d="m 92.441846,107.27204 c -0.37404,-0.0651 -0.658738,-0.005 -1.018963,0.0668 -0.360225,0.0723 -0.795656,0.16125 -1.119193,0.3842 -0.323537,0.22295 -0.549327,0.56971 -0.751694,0.90203 -0.202367,0.33232 -0.361749,0.69926 -0.451017,1.06908 -0.08927,0.36982 -0.106856,0.73137 -0.08352,1.11919 0.02334,0.38782 0.08263,0.81745 0.233863,1.18601 0.151231,0.36856 0.369146,0.69785 0.651468,0.98556 0.282322,0.28771 0.633954,0.51635 1.018966,0.70158 0.385012,0.18523 0.828583,0.35854 1.269529,0.3842 0.440946,0.0257 0.914431,-0.0908 1.30294,-0.23386 0.388509,-0.14307 0.706347,-0.32473 1.00226,-0.58465 0.295913,-0.25992 0.55707,-0.61429 0.734992,-0.95215 0.177922,-0.33786 0.280193,-0.64345 0.334086,-1.03567 0.05389,-0.39222 0.04677,-0.89807 -0.05011,-1.28623 -0.09688,-0.38816 -0.311945,-0.72771 -0.484425,-1.00226 -0.17248,-0.27455 -0.279271,-0.44231 -0.517838,-0.65147 -0.238567,-0.20916 -0.5737,-0.37369 -0.918736,-0.55125 -0.345036,-0.17756 -0.778568,-0.43601 -1.152608,-0.50111 z"
       id="path3896"
       inkscape:connector-curvature="0"
       sodipodi:nodetypes="zzzzzzzzzzzzzzzzzzz" />
    <path
       style="fill:#5f8aad;fill-opacity:1;stroke:none;stroke-width:0.25686115px;stroke-linecap:butt;stroke-linejoin:miter;stroke-opacity:1"
       d="m 91.372768,110.31223 c 0.09383,1.54717 1.953253,2.32834 2.288495,0.063 1.079298,0.11689 1.26327,2.01972 0.902041,2.59768 -0.105824,0.23608 -0.363565,0.39522 -0.601358,0.51953 -0.272891,0.14266 -0.598194,0.16907 -0.902033,0.23615 -0.259435,0.0573 -0.518676,0.1454 -0.785104,0.1417 -0.35931,-0.005 -0.74872,-0.0393 -1.052375,-0.22042 -1.763534,-0.47851 -0.673401,-2.57652 0.150334,-3.33764 z"
       id="path3898"
       inkscape:connector-curvature="0"
       sodipodi:nodetypes="cccssscc" />
    <path
       style="fill:#000000;stroke:#000000;stroke-width:0.26458332px;stroke-linecap:butt;stroke-linejoin:miter;stroke-opacity:1"
       d="m 92.391554,110.26795 c -0.168764,0.0272 -0.280633,0.28103 -0.248047,0.44884 0.03095,0.15936 0.21573,0.31258 0.377976,0.30711 0.155918,-0.005 0.342794,-0.16291 0.34254,-0.31892 -3.49e-4,-0.21453 -0.260667,-0.47115 -0.472469,-0.43703 z"
       id="path3900"
       inkscape:connector-curvature="0"
       sodipodi:nodetypes="sssss" />
    <path
       style="fill:#587893;stroke:none;stroke-width:0.26458332px;stroke-linecap:butt;stroke-linejoin:miter;stroke-opacity:1;fill-opacity:1"
       d="m 90.28632,109.69083 c -0.168764,0.0272 -0.280633,0.28103 -0.248047,0.44884 0.03095,0.15936 0.21573,0.31258 0.377976,0.30711 0.155918,-0.005 0.342794,-0.16291 0.34254,-0.31892 -3.49e-4,-0.21453 -0.260667,-0.47115 -0.472469,-0.43703 z"
       id="path3900-3"
       inkscape:connector-curvature="0"
       sodipodi:nodetypes="sssss" />
    <path
       style="fill:#000000;stroke:#000000;stroke-width:0.26458332px;stroke-linecap:butt;stroke-linejoin:miter;stroke-opacity:1"
       d="m 85.943857,110.46257 c 1.130707,-1.65977 2.896399,-3.10366 5.944371,-3.34727 l -1.133521,-0.41121 -1.102484,0.0668 -0.852344,0.28527 -0.567527,0.33279 -0.906275,0.52522 -0.630526,0.56056 -0.560618,0.58992 -0.49971,0.67175 z"
       id="path3917"
       inkscape:connector-curvature="0"
       sodipodi:nodetypes="ccccccccccc" />
    <path
       style="fill:none;stroke:#000000;stroke-width:0.26458332px;stroke-linecap:butt;stroke-linejoin:miter;stroke-opacity:1"
       d="m 112.80382,113.20545 0.0354,-1.03944 c 0.0681,-1.99702 7.58352,-9.16983 12.41423,-2.04343 0.13803,1.60948 -0.398,3.0634 -1.41741,4.40578"
       id="path3888-9"
       inkscape:connector-curvature="0"
       sodipodi:nodetypes="cscc" />
    <path
       style="fill:#eef4ed;fill-opacity:1;stroke:#000000;stroke-width:0.26458332px;stroke-linecap:butt;stroke-linejoin:miter;stroke-opacity:1"
       d="m 125.25349,110.12258 c -2.84043,8.6182 -7.20154,5.17968 -11.21662,4.48463 -0.62932,-1.976 -2.42539,-3.52649 3.50793,-6.86615 2.15341,-0.3423 3.83818,-1.98589 7.70869,2.38152 z"
       id="path3890-1"
       inkscape:connector-curvature="0"
       sodipodi:nodetypes="cccc" />
    <path
       style="fill:#b2b3b2;fill-opacity:1;stroke:none;stroke-width:0.26458332px;stroke-linecap:butt;stroke-linejoin:miter;stroke-opacity:1"
       d="m 123.55004,113.48802 c -0.14683,-4.54541 -2.32051,-5.36265 -4.66889,-5.9081 -3.92222,1.4248 -4.91816,3.46546 -5.12319,5.9523 -0.17329,-0.40384 -0.30644,-0.81971 -0.32312,-1.27053 -0.097,-0.43331 0.0911,-0.79952 0.25259,-1.17201 0.22186,-0.46366 0.58623,-0.82043 0.92853,-1.19376 l 1.31745,-1.0451 1.29114,-0.73804 2.3665,-0.7944 0.93304,-0.0587 c 0.64165,0.006 1.0606,0.21529 1.52297,0.3852 0.47888,0.22367 0.94585,0.54257 1.40908,0.89142 l 1.1494,1.0565 0.4944,0.5534 c -0.15268,0.5103 -0.32331,1.01612 -0.56434,1.50434 -0.21714,0.61249 -0.59304,1.22499 -0.98556,1.83748 z"
       id="path3894-2"
       inkscape:connector-curvature="0"
       sodipodi:nodetypes="cccccccccccccccc" />
    <path
       style="fill:#19426b;fill-opacity:1;stroke:#000000;stroke-width:0.26458332px;stroke-linecap:butt;stroke-linejoin:miter;stroke-opacity:1"
       d="m 118.44684,107.6582 c 0.37404,-0.0651 0.65874,-0.005 1.01897,0.0668 0.36022,0.0723 0.79566,0.16125 1.11919,0.3842 0.32354,0.22295 0.54933,0.56971 0.7517,0.90203 0.20237,0.33232 0.36176,0.69926 0.45102,1.06908 0.0893,0.36982 0.10686,0.73137 0.0835,1.11919 -0.0233,0.38782 -0.0826,0.81745 -0.23386,1.18601 -0.15123,0.36856 -0.36915,0.69785 -0.65147,0.98556 -0.28232,0.28771 -0.63396,0.51635 -1.01897,0.70158 -0.38502,0.18523 -0.82859,0.35854 -1.26954,0.3842 -0.44095,0.0257 -0.91444,-0.0908 -1.30295,-0.23386 -0.38851,-0.14307 -0.70635,-0.32473 -1.00226,-0.58465 -0.29592,-0.25992 -0.55708,-0.61429 -0.735,-0.95215 -0.17792,-0.33786 -0.28019,-0.64345 -0.33409,-1.03567 -0.0539,-0.39222 -0.0468,-0.89807 0.0501,-1.28623 0.0969,-0.38816 0.31195,-0.72771 0.48443,-1.00226 0.17248,-0.27455 0.27927,-0.44231 0.51784,-0.65147 0.23857,-0.20916 0.5737,-0.37369 0.91874,-0.55125 0.34504,-0.17756 0.77857,-0.43601 1.15261,-0.50111 z"
       id="path3896-7"
       inkscape:connector-curvature="0"
       sodipodi:nodetypes="zzzzzzzzzzzzzzzzzzz" />
    <path
       style="fill:#5f8aad;fill-opacity:1;stroke:none;stroke-width:0.25686115px;stroke-linecap:butt;stroke-linejoin:miter;stroke-opacity:1"
       d="m 119.51592,110.69839 c -0.0938,1.54717 -1.95326,2.32834 -2.28851,0.063 -1.0793,0.11689 -1.26327,2.01972 -0.90204,2.59768 0.10582,0.23608 0.36356,0.39522 0.60136,0.51953 0.27289,0.14266 0.5982,0.16907 0.90204,0.23615 0.25943,0.0573 0.51868,0.1454 0.78511,0.1417 0.35931,-0.005 0.74872,-0.0393 1.05238,-0.22042 1.69375,-0.94118 0.75116,-2.50233 -0.15034,-3.33764 z"
       id="path3898-0"
       inkscape:connector-curvature="0"
       sodipodi:nodetypes="cccssscc" />
    <path
       style="fill:#000000;stroke:#000000;stroke-width:0.26458332px;stroke-linecap:butt;stroke-linejoin:miter;stroke-opacity:1"
       d="m 118.49713,110.65411 c 0.16877,0.0272 0.28063,0.28103 0.24805,0.44884 -0.0309,0.15936 -0.21573,0.31258 -0.37798,0.30711 -0.15592,-0.005 -0.34279,-0.16291 -0.34254,-0.31892 3.4e-4,-0.21453 0.26067,-0.47115 0.47247,-0.43703 z"
       id="path3900-9"
       inkscape:connector-curvature="0"
       sodipodi:nodetypes="sssss" />
    <path
       style="fill:#587893;fill-opacity:1;stroke:none;stroke-width:0.26458332px;stroke-linecap:butt;stroke-linejoin:miter;stroke-opacity:1"
       d="m 116.35014,110.07699 c 0.16877,0.0272 0.28064,0.28103 0.24806,0.44884 -0.031,0.15936 -0.21574,0.31258 -0.37798,0.30711 -0.15592,-0.005 -0.3428,-0.16291 -0.34254,-0.31892 3.4e-4,-0.21453 0.26066,-0.47115 0.47246,-0.43703 z"
       id="path3900-3-3"
       inkscape:connector-curvature="0"
       sodipodi:nodetypes="sssss" />
    <path
       style="fill:#000000;stroke:#000000;stroke-width:0.26458332px;stroke-linecap:butt;stroke-linejoin:miter;stroke-opacity:1"
       d="m 124.79131,110.87237 c -1.13071,-1.65977 -2.89642,-3.10366 -5.94441,-3.34727 l 1.13353,-0.41121 1.10249,0.0668 0.85235,0.28527 0.56753,0.33279 0.90628,0.52522 0.63053,0.56056 0.56062,0.58992 0.49971,0.67175 z"
       id="path3917-6"
       inkscape:connector-curvature="0"
       sodipodi:nodetypes="ccccccccccc" />
    <path
       style="fill:none;stroke:#000000;stroke-width:0.26458332px;stroke-linecap:butt;stroke-linejoin:miter;stroke-opacity:1"
       d="m 130.16555,118.28813 1.11031,2.26786"
       id="path4002"
       inkscape:connector-curvature="0" />
    <path
       style="fill:none;stroke:#000000;stroke-width:0.26458332px;stroke-linecap:butt;stroke-linejoin:miter;stroke-opacity:1"
       d="m 130.80339,119.63467 c 2.2294,-2.51411 5.15615,-5.71263 2.81119,-7.79576"
       id="path4004"
       inkscape:connector-curvature="0"
       sodipodi:nodetypes="cc" />
    <path
       style="fill:none;stroke:#000000;stroke-width:0.26458332px;stroke-linecap:butt;stroke-linejoin:miter;stroke-opacity:1"
       d="m 130.16555,118.28813 c 0.88588,-1.04073 3.48896,-2.91115 2.07887,-5.26804"
       id="path4006"
       inkscape:connector-curvature="0"
       sodipodi:nodetypes="cc" />
    <path
       style="fill:#a1746f;stroke:none;stroke-width:0.26458332px;stroke-linecap:butt;stroke-linejoin:miter;stroke-opacity:1;fill-opacity:1"
       d="m 135.8815,107.82328 -1.40317,-1.5702 0.30068,-0.34244 0.26727,-0.0585 0.31738,0.0251 0.29208,0.15553 0.10858,0.18375 z"
       id="path4014"
       inkscape:connector-curvature="0" />
    <path
       style="fill:none;stroke:#000000;stroke-width:0.26458332px;stroke-linecap:butt;stroke-linejoin:miter;stroke-opacity:1"
       d="m 135.76432,106.21651 c -1.60972,-2.01516 -2.56713,4.18875 -3.85063,6.28386"
       id="path4008"
       inkscape:connector-curvature="0"
       sodipodi:nodetypes="cc" />
    <path
       style="fill:none;stroke:#000000;stroke-width:0.26458332px;stroke-linecap:butt;stroke-linejoin:miter;stroke-opacity:1"
       d="m 135.65574,106.03276 0.22576,1.79052"
       id="path4012"
       inkscape:connector-curvature="0"
       sodipodi:nodetypes="cc" />
    <path
       style="fill:none;stroke:#000000;stroke-width:0.26458332px;stroke-linecap:butt;stroke-linejoin:miter;stroke-opacity:1"
       d="m 79.304128,113.78785 c -0.05906,0.0827 -0.656678,0.20508 -0.649645,0.8032 0.007,0.59812 1.653646,1.94894 1.653646,1.94894"
       id="path4016"
       inkscape:connector-curvature="0"
       sodipodi:nodetypes="czc" />
    <path
       style="fill:none;stroke:#000000;stroke-width:0.26458332px;stroke-linecap:butt;stroke-linejoin:miter;stroke-opacity:1"
       d="m 79.823846,118.48893 c -1.5481,-1.91602 -4.902142,-3.99067 -2.137928,-5.5279"
       id="path4018"
       inkscape:connector-curvature="0"
       sodipodi:nodetypes="cc" />
    <path
       style="fill:none;stroke:#000000;stroke-width:0.26458332px;stroke-linecap:butt;stroke-linejoin:miter;stroke-opacity:1"
       d="m 80.46168,117.56761 c -0.09449,0.17718 -0.850445,1.5001 -0.850445,1.5001"
       id="path4020"
       inkscape:connector-curvature="0" />
    <path
       style="fill:#c49188;stroke:none;stroke-width:0.26458332px;stroke-linecap:butt;stroke-linejoin:miter;stroke-opacity:1;fill-opacity:1"
       d="m 75.637275,108.67521 0.200454,3.20723 c 0.292821,-1.85208 0.395769,-3.96147 0.935442,-5.47902 -0.05571,-0.42873 -0.367682,-0.72933 -0.668173,-1.03567 -0.576275,0.85912 -0.461393,2.11838 -0.467723,3.30746"
       id="path4024"
       inkscape:connector-curvature="0"
       sodipodi:nodetypes="ccccc" />
    <path
       style="fill:none;stroke:#000000;stroke-width:0.26458332px;stroke-linecap:butt;stroke-linejoin:miter;stroke-opacity:1"
       d="m 75.637275,108.67521 c -0.03713,-7.65063 1.945982,-0.14952 3.407688,3.44109"
       id="path4022"
       inkscape:connector-curvature="0"
       sodipodi:nodetypes="cc" />
    <path
       style="fill:none;stroke:#000000;stroke-width:1.68209469;stroke-linecap:butt;stroke-linejoin:miter;stroke-miterlimit:4;stroke-dasharray:none;stroke-opacity:1"
       d="M 59.049791,80.466568 38.884534,149.68679 H 154.29846 l 19.96078,-68.481756 z"
       id="path4833"
       inkscape:connector-curvature="0" />
  </g>
</svg>
